<?xml version="1.0" encoding="UTF-8" standalone="no"?>
<!-- Created with Inkscape (http://www.inkscape.org/) -->

<svg
   width="210mm"
   height="297mm"
   viewBox="0 0 210 297"
   version="1.1"
   id="svg5"
   sodipodi:docname="minimum_curves.svg"
   inkscape:version="1.1.1 (3bf5ae0d25, 2021-09-20)"
   xmlns:inkscape="http://www.inkscape.org/namespaces/inkscape"
   xmlns:sodipodi="http://sodipodi.sourceforge.net/DTD/sodipodi-0.dtd"
   xmlns="http://www.w3.org/2000/svg"
   xmlns:svg="http://www.w3.org/2000/svg">
  <sodipodi:namedview
     id="namedview7"
     pagecolor="#505050"
     bordercolor="#eeeeee"
     borderopacity="1"
     inkscape:pageshadow="0"
     inkscape:pageopacity="0"
     inkscape:pagecheckerboard="0"
     inkscape:document-units="mm"
     showgrid="false"
     inkscape:zoom="1.9954595"
     inkscape:cx="9.5216167"
     inkscape:cy="220.75117"
     inkscape:window-width="3377"
     inkscape:window-height="1417"
     inkscape:window-x="55"
     inkscape:window-y="224"
     inkscape:window-maximized="1"
     inkscape:current-layer="svg5" />
  <defs
     id="defs2">
    <marker
       style="overflow:visible"
       id="Arrow1Sstart"
       refX="0.0"
       refY="0.0"
       orient="auto"
       inkscape:stockid="Arrow1Sstart"
       inkscape:isstock="true">
      <path
         transform="scale(0.2) translate(6,0)"
         style="fill-rule:evenodd;fill:context-stroke;stroke:context-stroke;stroke-width:1.0pt"
         d="M 0.0,0.0 L 5.0,-5.0 L -12.5,0.0 L 5.0,5.0 L 0.0,0.0 z "
         id="path27314" />
    </marker>
    <marker
       style="overflow:visible;"
       id="marker69854"
       refX="0.0"
       refY="0.0"
       orient="auto"
       inkscape:stockid="Arrow1Send"
       inkscape:isstock="true">
      <path
         transform="scale(0.2) rotate(180) translate(6,0)"
         style="fill-rule:evenodd;fill:context-stroke;stroke:context-stroke;stroke-width:1.0pt;"
         d="M 0.0,0.0 L 5.0,-5.0 L -12.5,0.0 L 5.0,5.0 L 0.0,0.0 z "
         id="path69852" />
    </marker>
    <marker
       style="overflow:visible"
       id="Arrow2Sstart"
       refX="0.0"
       refY="0.0"
       orient="auto"
       inkscape:stockid="Arrow2Sstart"
       inkscape:isstock="true">
      <path
         transform="scale(0.3) translate(-2.3,0)"
         d="M 8.7185878,4.0337352 L -2.2072895,0.016013256 L 8.7185884,-4.0017078 C 6.9730900,-1.6296469 6.9831476,1.6157441 8.7185878,4.0337352 z "
         style="stroke:context-stroke;fill-rule:evenodd;fill:context-stroke;stroke-width:0.62500000;stroke-linejoin:round"
         id="path27332" />
    </marker>
    <marker
       style="overflow:visible"
       id="Arrow1Mstart"
       refX="0.0"
       refY="0.0"
       orient="auto"
       inkscape:stockid="Arrow1Mstart"
       inkscape:isstock="true">
      <path
         transform="scale(0.4) translate(10,0)"
         style="fill-rule:evenodd;fill:context-stroke;stroke:context-stroke;stroke-width:1.0pt"
         d="M 0.0,0.0 L 5.0,-5.0 L -12.5,0.0 L 5.0,5.0 L 0.0,0.0 z "
         id="path27308" />
    </marker>
    <marker
       style="overflow:visible;"
       id="Arrow1Send"
       refX="0.0"
       refY="0.0"
       orient="auto"
       inkscape:stockid="Arrow1Send"
       inkscape:isstock="true">
      <path
         transform="scale(0.2) rotate(180) translate(6,0)"
         style="fill-rule:evenodd;fill:context-stroke;stroke:context-stroke;stroke-width:1.0pt;"
         d="M 0.0,0.0 L 5.0,-5.0 L -12.5,0.0 L 5.0,5.0 L 0.0,0.0 z "
         id="path27317" />
    </marker>
    <marker
       style="overflow:visible;"
       id="Arrow1Lend"
       refX="0.0"
       refY="0.0"
       orient="auto"
       inkscape:stockid="Arrow1Lend"
       inkscape:isstock="true">
      <path
         transform="scale(0.8) rotate(180) translate(12.5,0)"
         style="fill-rule:evenodd;fill:context-stroke;stroke:context-stroke;stroke-width:1.0pt;"
         d="M 0.0,0.0 L 5.0,-5.0 L -12.5,0.0 L 5.0,5.0 L 0.0,0.0 z "
         id="path27305" />
    </marker>
    <inkscape:path-effect
       effect="powerstroke"
       id="path-effect1766"
       is_visible="true"
       lpeversion="1"
       offset_points="0,1"
       not_jump="false"
       sort_points="true"
       interpolator_type="CubicBezierJohan"
       interpolator_beta="0.2"
       start_linecap_type="zerowidth"
       linejoin_type="extrp_arc"
       miter_limit="4"
       scale_width="1"
       end_linecap_type="zerowidth" />
    <inkscape:path-effect
       effect="powerstroke"
       id="path-effect1762"
       is_visible="true"
       lpeversion="1"
       offset_points="0,1"
       not_jump="false"
       sort_points="true"
       interpolator_type="CubicBezierJohan"
       interpolator_beta="0.2"
       start_linecap_type="zerowidth"
       linejoin_type="extrp_arc"
       miter_limit="4"
       scale_width="1"
       end_linecap_type="zerowidth" />
    <inkscape:path-effect
       effect="powerstroke"
       id="path-effect1758"
       is_visible="true"
       lpeversion="1"
       offset_points="0,1"
       not_jump="false"
       sort_points="true"
       interpolator_type="CubicBezierJohan"
       interpolator_beta="0.2"
       start_linecap_type="zerowidth"
       linejoin_type="extrp_arc"
       miter_limit="4"
       scale_width="1"
       end_linecap_type="zerowidth" />
    <inkscape:path-effect
       effect="powerstroke"
       id="path-effect1754"
       is_visible="true"
       lpeversion="1"
       offset_points="0,1"
       not_jump="false"
       sort_points="true"
       interpolator_type="CubicBezierJohan"
       interpolator_beta="0.2"
       start_linecap_type="zerowidth"
       linejoin_type="extrp_arc"
       miter_limit="4"
       scale_width="1"
       end_linecap_type="zerowidth" />
    <inkscape:path-effect
       effect="powerstroke"
       id="path-effect1750"
       is_visible="true"
       lpeversion="1"
       offset_points="0,1"
       not_jump="false"
       sort_points="true"
       interpolator_type="CubicBezierJohan"
       interpolator_beta="0.2"
       start_linecap_type="zerowidth"
       linejoin_type="extrp_arc"
       miter_limit="4"
       scale_width="1"
       end_linecap_type="zerowidth" />
    <inkscape:path-effect
       effect="powerstroke"
       id="path-effect1746"
       is_visible="true"
       lpeversion="1"
       offset_points="0,1"
       not_jump="false"
       sort_points="true"
       interpolator_type="CubicBezierJohan"
       interpolator_beta="0.2"
       start_linecap_type="zerowidth"
       linejoin_type="extrp_arc"
       miter_limit="4"
       scale_width="1"
       end_linecap_type="zerowidth" />
    <inkscape:path-effect
       effect="powerstroke"
       id="path-effect1707"
       is_visible="true"
       lpeversion="1"
       offset_points="0.84146216,0.24861129"
       not_jump="true"
       sort_points="true"
       interpolator_type="CentripetalCatmullRom"
       interpolator_beta="0.75"
       start_linecap_type="round"
       linejoin_type="spiro"
       miter_limit="4"
       scale_width="1"
       end_linecap_type="round" />
    <inkscape:path-effect
       effect="simplify"
       id="path-effect1705"
       is_visible="true"
       lpeversion="1"
       steps="1"
       threshold="0.014201184"
       smooth_angles="0"
       helper_size="0"
       simplify_individual_paths="false"
       simplify_just_coalesce="false"
       step="1" />
    <inkscape:path-effect
       effect="powerstroke"
       id="path-effect1700"
       is_visible="true"
       lpeversion="1"
       offset_points="1.1303437,0.24861129"
       not_jump="true"
       sort_points="true"
       interpolator_type="CentripetalCatmullRom"
       interpolator_beta="0.75"
       start_linecap_type="round"
       linejoin_type="spiro"
       miter_limit="4"
       scale_width="1"
       end_linecap_type="round" />
    <inkscape:path-effect
       effect="simplify"
       id="path-effect1698"
       is_visible="true"
       lpeversion="1"
       steps="1"
       threshold="0.014201184"
       smooth_angles="0"
       helper_size="0"
       simplify_individual_paths="false"
       simplify_just_coalesce="false"
       step="1" />
    <inkscape:path-effect
       effect="powerstroke"
       id="path-effect1660"
       is_visible="true"
       lpeversion="1"
       offset_points="1.4556609,0.21564627"
       not_jump="true"
       sort_points="true"
       interpolator_type="CentripetalCatmullRom"
       interpolator_beta="0.75"
       start_linecap_type="round"
       linejoin_type="spiro"
       miter_limit="4"
       scale_width="1"
       end_linecap_type="round" />
    <inkscape:path-effect
       effect="simplify"
       id="path-effect1658"
       is_visible="true"
       lpeversion="1"
       steps="1"
       threshold="0.0062910338"
       smooth_angles="0"
       helper_size="0"
       simplify_individual_paths="false"
       simplify_just_coalesce="false"
       step="1" />
    <inkscape:path-effect
       effect="powerstroke"
       id="path-effect1653"
       is_visible="true"
       lpeversion="1"
       offset_points="1.5400894,0.21564627"
       not_jump="true"
       sort_points="true"
       interpolator_type="CentripetalCatmullRom"
       interpolator_beta="0.75"
       start_linecap_type="round"
       linejoin_type="spiro"
       miter_limit="4"
       scale_width="1"
       end_linecap_type="round" />
    <inkscape:path-effect
       effect="simplify"
       id="path-effect1651"
       is_visible="true"
       lpeversion="1"
       steps="1"
       threshold="0.0062910338"
       smooth_angles="0"
       helper_size="0"
       simplify_individual_paths="false"
       simplify_just_coalesce="false"
       step="1" />
    <inkscape:path-effect
       effect="powerstroke"
       id="path-effect1646"
       is_visible="true"
       lpeversion="1"
       offset_points="1.8482919,0.21564627"
       not_jump="true"
       sort_points="true"
       interpolator_type="CentripetalCatmullRom"
       interpolator_beta="0.75"
       start_linecap_type="round"
       linejoin_type="spiro"
       miter_limit="4"
       scale_width="1"
       end_linecap_type="round" />
    <inkscape:path-effect
       effect="simplify"
       id="path-effect1644"
       is_visible="true"
       lpeversion="1"
       steps="1"
       threshold="0.0062910338"
       smooth_angles="0"
       helper_size="0"
       simplify_individual_paths="false"
       simplify_just_coalesce="false"
       step="1" />
    <inkscape:path-effect
       effect="powerstroke"
       id="path-effect1639"
       is_visible="true"
       lpeversion="1"
       offset_points="1.1633074,0.21564627"
       not_jump="true"
       sort_points="true"
       interpolator_type="CentripetalCatmullRom"
       interpolator_beta="0.75"
       start_linecap_type="round"
       linejoin_type="spiro"
       miter_limit="4"
       scale_width="1"
       end_linecap_type="round" />
    <inkscape:path-effect
       effect="simplify"
       id="path-effect1637"
       is_visible="true"
       lpeversion="1"
       steps="1"
       threshold="0.0062910338"
       smooth_angles="0"
       helper_size="0"
       simplify_individual_paths="false"
       simplify_just_coalesce="false"
       step="1" />
    <inkscape:path-effect
       effect="powerstroke"
       id="path-effect1632"
       is_visible="true"
       lpeversion="1"
       offset_points="1.3441404,0.21564627"
       not_jump="true"
       sort_points="true"
       interpolator_type="CentripetalCatmullRom"
       interpolator_beta="0.75"
       start_linecap_type="round"
       linejoin_type="spiro"
       miter_limit="4"
       scale_width="1"
       end_linecap_type="round" />
    <inkscape:path-effect
       effect="simplify"
       id="path-effect1630"
       is_visible="true"
       lpeversion="1"
       steps="1"
       threshold="0.0062910338"
       smooth_angles="0"
       helper_size="0"
       simplify_individual_paths="false"
       simplify_just_coalesce="false"
       step="1" />
    <inkscape:path-effect
       effect="powerstroke"
       id="path-effect1623"
       is_visible="true"
       lpeversion="1"
       offset_points="1.4044391,1.2938776"
       not_jump="true"
       sort_points="true"
       interpolator_type="CentripetalCatmullRom"
       interpolator_beta="0.75"
       start_linecap_type="round"
       linejoin_type="spiro"
       miter_limit="4"
       scale_width="1"
       end_linecap_type="round" />
    <inkscape:path-effect
       effect="simplify"
       id="path-effect1621"
       is_visible="true"
       lpeversion="1"
       steps="1"
       threshold="0.0062910338"
       smooth_angles="0"
       helper_size="0"
       simplify_individual_paths="false"
       simplify_just_coalesce="false"
       step="1" />
    <inkscape:path-effect
       effect="powerstroke"
       id="path-effect1581"
       is_visible="true"
       lpeversion="1"
       offset_points="0,4.99214"
       not_jump="false"
       sort_points="true"
       interpolator_type="CubicBezierJohan"
       interpolator_beta="0.2"
       start_linecap_type="zerowidth"
       linejoin_type="extrp_arc"
       miter_limit="4"
       scale_width="1"
       end_linecap_type="zerowidth" />
    <inkscape:path-effect
       effect="powerstroke"
       id="path-effect1412"
       is_visible="true"
       lpeversion="1"
       offset_points="0,4.99214"
       not_jump="false"
       sort_points="true"
       interpolator_type="CubicBezierJohan"
       interpolator_beta="0.2"
       start_linecap_type="zerowidth"
       linejoin_type="extrp_arc"
       miter_limit="4"
       scale_width="1"
       end_linecap_type="zerowidth" />
  </defs>
  <g
     inkscape:groupmode="layer"
     id="layer4"
     inkscape:label="Bg">
    <rect
       style="fill:#808080;stroke:#666666;stroke-width:0;stroke-miterlimit:4;stroke-dasharray:none;stroke-dashoffset:0.701102"
       id="rect28330"
       width="62.981525"
       height="62.716343"
       x="23.468906"
       y="20.087791"
       inkscape:export-filename="C:\Users\Sason\Documents\Projects\blog\deep_learning_python\ch2\img\global_local_minimum.png"
       inkscape:export-xdpi="201.64644"
       inkscape:export-ydpi="201.64644" />
  </g>
  <g
     inkscape:label="Axes"
     inkscape:groupmode="layer"
     id="layer1">
    <path
       style="fill:none;stroke:#000000;stroke-width:0.264583px;stroke-linecap:butt;stroke-linejoin:miter;stroke-opacity:1;marker-start:url(#Arrow1Sstart)"
       d="M 29.602408,20.564031 V 82.626506"
       id="path876" />
    <path
       style="fill:none;stroke:#000000;stroke-width:0.264583px;stroke-linecap:butt;stroke-linejoin:miter;stroke-opacity:1;marker-end:url(#marker69854)"
       d="M 23.46165,77.470767 H 85.919482"
       id="path876-2" />
  </g>
  <g
     inkscape:groupmode="layer"
     id="layer2"
     inkscape:label="Curve" />
  <path
     id="path-1"
     style="fill:#000000;fill-rule:nonzero;stroke:none;stroke-width:1px;stroke-linecap:butt;stroke-linejoin:miter;stroke-opacity:1"
     d="m 32.047857,33.31011 c -0.471137,0.0047 -0.895603,0.110344 -1.24505,0.24443 a 0.21487226,0.21564627 0 0 0 0.153957,0.402561 c 0.416488,-0.159811 0.937521,-0.26969 1.517438,-0.188103 0.421656,0.05932 0.872504,0.220953 1.306326,0.530717 0.359238,0.256508 0.705806,0.615323 0.985537,1.081588 0.244391,0.407357 0.438676,0.899419 0.527781,1.455208 0.0018,0.01209 0.0048,0.02408 0.0088,0.03566 0.860255,2.521601 1.352768,5.091626 1.870151,8.155056 0.01458,0.08637 0.120837,0.721852 0.135424,0.80822 0.397493,2.371627 0.95433,5.895954 2.025139,9.02684 0.0013,0.0042 0.003,0.0083 0.0046,0.01241 0.237233,0.575881 0.549763,1.205553 0.944344,1.820045 0.36389,0.5667 0.806473,1.133501 1.33001,1.624189 0.490815,0.460021 1.063156,0.862338 1.716192,1.12448 0.620299,0.248999 1.317755,0.37339 2.087444,0.294039 0.0067,-7.94e-4 0.01345,-0.0019 0.02009,-0.0031 0.615674,-0.123256 1.168828,-0.369215 1.675002,-0.710035 0.486496,-0.327568 0.921927,-0.737558 1.327437,-1.198375 0.392804,-0.446379 0.75177,-0.933511 1.100877,-1.433505 0.338012,-0.484105 0.663555,-0.975971 0.993261,-1.433504 0.0021,-0.0031 0.0041,-0.0061 0.0062,-0.0093 1.097575,-1.705207 2.07298,-3.44837 3.109024,-5.284948 0.978555,-1.73467 1.997784,-3.52796 3.133739,-5.23172 0.297624,-0.450226 0.669474,-0.874051 1.096242,-1.240753 0.421379,-0.362067 0.894934,-0.66647 1.397981,-0.883666 0.497587,-0.214842 1.02263,-0.343464 1.553997,-0.357085 0.52597,-0.01349 1.060614,0.08526 1.583346,0.327629 0.745712,0.319984 1.412107,0.749686 2.015356,1.264007 0.60008,0.511617 1.136506,1.106384 1.620419,1.755963 0.962564,1.29209 1.707395,2.788298 2.323789,4.250904 0.651425,1.932077 0.978162,3.93813 1.220334,5.972762 0.243062,2.042115 0.400483,4.10681 0.715209,6.135542 0.21565,1.688031 0.38084,3.399584 0.621498,5.088062 0.244992,1.718892 0.565652,3.401872 1.089548,5.032769 0.170937,0.559522 0.472716,1.09048 0.855264,1.547191 0.387935,0.463142 0.861645,0.853432 1.379442,1.129646 0.526184,0.280689 1.100001,0.44486 1.67912,0.447519 0.293374,0.0013 0.587197,-0.03864 0.875862,-0.125058 0.291471,-0.08726 0.575708,-0.221517 0.848055,-0.405659 0.0057,-0.0038 0.0112,-0.0075 0.01648,-0.01188 0.652409,-0.538432 1.168211,-1.16333 1.589012,-1.832446 0.430003,-0.683749 0.763913,-1.419217 1.042176,-2.163175 0.581594,-1.554932 0.937581,-3.162186 1.373265,-4.579567 0.0011,-0.0037 0.0021,-0.0071 0.0031,-0.01085 0.55261,-2.207561 1.009071,-4.19219 1.697141,-6.182569 0.739735,-2.139838 1.656429,-3.985797 2.93138,-5.561417 0.02589,-0.02249 0.04728,-0.04138 0.07209,-0.06305 -2.61e-4,-0.06876 -2.64e-4,-0.13753 -5.28e-4,-0.20619 0.0032,-0.119229 0.01094,-0.238813 -0.0046,-0.3576 -0.118081,0.100719 -0.23673,0.203981 -0.362496,0.313158 -0.0094,0.0082 -0.01837,0.01714 -0.02626,0.02687 -1.322078,1.629323 -2.262997,3.529442 -3.015824,5.707148 -0.695371,2.0115 -1.156659,4.018705 -1.705895,6.213056 -0.441723,1.438154 -0.797339,3.035456 -1.363481,4.549077 -0.271554,0.726017 -0.593772,1.433544 -1.003559,2.085144 -0.398656,0.633902 -0.882904,1.219176 -1.490664,1.722374 -0.234447,0.157332 -0.476465,0.270534 -0.722417,0.344165 -0.246613,0.07383 -0.497967,0.108132 -0.750739,0.106971 -0.499462,-0.0024 -1.005198,-0.143952 -1.479333,-0.396875 -0.466679,-0.248944 -0.897889,-0.603224 -1.25226,-1.026295 -0.34957,-0.417338 -0.620762,-0.897655 -0.77391,-1.398881 -0.514354,-1.601267 -0.831337,-3.257685 -1.074615,-4.964555 -0.238813,-1.675529 -0.403885,-3.385282 -0.621496,-5.088061 -0.312076,-2.012151 -0.469141,-4.071327 -0.713667,-6.125724 -0.243637,-2.046964 -0.575525,-4.090418 -1.24299,-6.067329 -0.0016,-0.005 -0.0036,-0.0096 -0.0057,-0.01447 -0.623112,-1.479449 -1.383982,-3.014972 -2.377852,-4.349089 -0.499631,-0.670671 -1.058054,-1.290148 -1.686844,-1.826244 -0.632547,-0.539297 -1.335113,-0.992917 -2.118853,-1.329118 -0.579844,-0.268946 -1.180117,-0.379923 -1.768716,-0.364837 -0.593157,0.01521 -1.171878,0.158028 -1.713102,0.391708 -0.546655,0.236027 -1.056694,0.564909 -1.507655,0.952397 -0.456791,0.392496 -0.854751,0.846701 -1.173995,1.329634 -1.145602,1.718226 -2.172281,3.524507 -3.150217,5.258078 -1.036835,1.837984 -2.004921,3.56762 -3.093061,5.258594 -0.33554,0.465891 -0.660788,0.957111 -0.993775,1.43402 -0.345861,0.495345 -0.693523,0.967391 -1.070498,1.39578 -0.38872,0.441741 -0.797321,0.824048 -1.24505,1.125514 -0.461396,0.310669 -0.959183,0.531196 -1.509716,0.642856 -0.691111,0.06954 -1.315459,-0.04202 -1.873756,-0.266134 -0.592949,-0.238022 -1.121073,-0.606912 -1.582316,-1.039215 -0.49198,-0.46111 -0.912652,-0.998424 -1.262043,-1.542542 -0.377155,-0.587354 -0.677141,-1.191138 -0.905727,-1.745112 -1.055552,-3.088812 -1.607064,-6.571681 -2.006086,-8.952426 0.0437,0.260723 -0.179635,-1.06894 -0.135938,-0.808217 -0.516579,-3.058673 -1.012187,-5.653995 -1.880963,-8.205703 -0.09961,-0.605695 -0.312371,-1.143661 -0.580819,-1.591117 -0.310408,-0.5174 -0.697548,-0.919699 -1.10448,-1.210262 -0.492207,-0.351449 -1.008576,-0.538131 -1.495813,-0.606682 -0.166379,-0.02341 -0.329028,-0.0331 -0.486074,-0.03152 z"
     inkscape:export-filename="C:\Users\Sason\Documents\Projects\blog\deep_learning_python\ch2\img\global_local_minimum.png"
     inkscape:export-xdpi="201.21149"
     inkscape:export-ydpi="201.21149" />
  <g
     inkscape:groupmode="layer"
     id="layer3"
     inkscape:label="Layer 1" />
  <path
     style="fill:#ff0000;stroke:#ff0000;stroke-width:0.264583px;stroke-linecap:butt;stroke-linejoin:miter;stroke-opacity:1"
     d="M 39.838277,54.504655 H 50.23968"
     id="path2775"
     inkscape:export-filename="C:\Users\Sason\Documents\Projects\blog\deep_learning_python\ch2\img\global_local_minimum.png"
     inkscape:export-xdpi="201.21149"
     inkscape:export-ydpi="201.21149" />
  <text
     xml:space="preserve"
     style="font-size:2.11667px;line-height:1.25;font-family:sans-serif;fill:#ffffff;stroke-width:0.264583"
     x="37.075123"
     y="54.056381"
     id="text5059"
     inkscape:export-filename="C:\Users\Sason\Documents\Projects\blog\deep_learning_python\ch2\img\global_local_minimum.png"
     inkscape:export-xdpi="201.21149"
     inkscape:export-ydpi="201.21149"><tspan
       sodipodi:role="line"
       id="tspan5057"
       style="font-size:2.11667px;fill:#ffffff;stroke-width:0.264583"
       x="37.075123"
       y="54.056381">Local Minimum</tspan></text>
  <text
     xml:space="preserve"
     style="font-size:5.64444px;line-height:1.25;font-family:sans-serif;stroke-width:0.264583"
     x="58.67226"
     y="56.583927"
     id="text16367"><tspan
       sodipodi:role="line"
       id="tspan16365"
       style="stroke-width:0.264583"></tspan></text>
  <path
     style="fill:#ff0000;stroke:#ff0000;stroke-width:0.264583px;stroke-linecap:butt;stroke-linejoin:miter;stroke-opacity:1"
     d="m 73.079902,72.439193 h 5.686076"
     id="path21567"
     inkscape:export-filename="C:\Users\Sason\Documents\Projects\blog\deep_learning_python\ch2\img\global_local_minimum.png"
     inkscape:export-xdpi="201.21149"
     inkscape:export-ydpi="201.21149" />
  <text
     xml:space="preserve"
     style="font-size:2.11667px;line-height:1.25;font-family:sans-serif;fill:#ffffff;stroke-width:0.264583"
     x="67.373077"
     y="72.072411"
     id="text21571"
     inkscape:export-filename="C:\Users\Sason\Documents\Projects\blog\deep_learning_python\ch2\img\global_local_minimum.png"
     inkscape:export-xdpi="201.21149"
     inkscape:export-ydpi="201.21149"><tspan
       sodipodi:role="line"
       id="tspan21569"
       style="font-size:2.11667px;fill:#ffffff;stroke-width:0.264583"
       x="67.373077"
       y="72.072411">Global Minimum</tspan></text>
  <text
     xml:space="preserve"
     style="font-size:5.64444px;line-height:1.25;font-family:sans-serif;stroke-width:0.264583"
     x="81.677094"
     y="73.456352"
     id="text26775"><tspan
       sodipodi:role="line"
       id="tspan26773"
       style="stroke-width:0.264583"></tspan></text>
  <path
     style="fill:#ff0000;stroke:#ff0000;stroke-width:0.264583px;stroke-linecap:butt;stroke-linejoin:miter;stroke-opacity:1;marker-end:url(#Arrow1Send)"
     d="m 44.899199,54.512169 v 4.34273"
     id="path27234"
     inkscape:export-filename="C:\Users\Sason\Documents\Projects\blog\deep_learning_python\ch2\img\global_local_minimum.png"
     inkscape:export-xdpi="201.21149"
     inkscape:export-ydpi="201.21149" />
  <path
     style="fill:none;stroke:#ff0000;stroke-width:0.264583px;stroke-linecap:butt;stroke-linejoin:miter;stroke-opacity:1;marker-end:url(#Arrow1Send)"
     d="m 75.975609,72.445329 v 1.592057"
     id="path27693"
     inkscape:export-filename="C:\Users\Sason\Documents\Projects\blog\deep_learning_python\ch2\img\global_local_minimum.png"
     inkscape:export-xdpi="201.21149"
     inkscape:export-ydpi="201.21149" />
  <text
     xml:space="preserve"
     style="font-size:2.11667px;line-height:1.05;font-family:sans-serif;text-align:center;text-anchor:middle;stroke-width:0.264583"
     x="26.500702"
     y="23.004831"
     id="text29318"><tspan
       sodipodi:role="line"
       id="tspan29316"
       style="font-size:2.11667px;text-align:center;text-anchor:middle;stroke-width:0.264583"
       x="26.500702"
       y="23.004831">Loss</tspan><tspan
       sodipodi:role="line"
       style="font-size:2.11667px;text-align:center;text-anchor:middle;stroke-width:0.264583"
       x="26.500702"
       y="25.227335"
       id="tspan29320">value</tspan></text>
  <text
     xml:space="preserve"
     style="font-size:2.82222px;line-height:0;font-family:sans-serif;text-align:center;text-anchor:middle;stroke-width:0.264583"
     x="80.029434"
     y="79.754501"
     id="text39206"><tspan
       sodipodi:role="line"
       id="tspan39204"
       style="font-size:2.11667px;line-height:1.15;text-align:center;text-anchor:middle;stroke-width:0.264583"
       x="80.029434"
       y="79.754501">Parameter</tspan><tspan
       style="font-size:2.11667px;line-height:1.15;text-align:center;text-anchor:middle;stroke-width:0.264583"
       sodipodi:role="line"
       id="tspan59138"
       x="80.029434"
       y="82.188675">value</tspan></text>
  <text
     xml:space="preserve"
     style="font-size:5.64444px;line-height:1.25;font-family:sans-serif;stroke-width:0.264583"
     x="78.0308"
     y="87.71006"
     id="text60528"><tspan
       sodipodi:role="line"
       id="tspan60526"
       style="stroke-width:0.264583"></tspan></text>
</svg>
